<svg width="318" height="318" viewBox="0 0 318 318" fill="none" xmlns="http://www.w3.org/2000/svg">
<g clip-path="url(#clip0_182_760)">
<path d="M211.297 133.717V261.803C211.297 266.255 207.675 269.853 203.223 269.853H115.226C110.775 269.853 107.153 266.255 107.153 261.803V133.717C107.153 133.717 137.946 151.155 167.125 138.215C196.304 125.275 211.297 133.717 211.297 133.717Z" fill="#3A3F42"/>
<path d="M107.153 133.714V124.418C107.153 115.722 114.188 108.687 122.884 108.687H131.926V95.5857H120.116C116.91 95.5857 114.327 93.0023 114.327 89.7961V65.9689C114.327 62.7627 116.91 60.1562 120.116 60.1562H195.519C198.726 60.1562 201.332 62.7627 201.332 65.9689V89.7961C201.332 93.0023 198.726 95.5857 195.519 95.5857H183.733V108.687H195.565C204.261 108.687 211.297 115.722 211.297 124.418V261.8C211.297 266.251 207.675 269.85 203.223 269.85H115.226C110.775 269.85 107.153 266.251 107.153 261.8V133.714Z" stroke="#3A3F42" stroke-width="2.3066" stroke-miterlimit="10"/>
<path d="M107.153 133.717C107.153 133.717 137.946 151.155 167.125 138.215C196.304 125.275 211.297 133.717 211.297 133.717" stroke="#3A3F42" stroke-width="2.3066" stroke-miterlimit="10"/>
</g>
<defs>
<clipPath id="clip0_182_760">
<rect width="106.45" height="212" fill="white" transform="translate(106 59)"/>
</clipPath>
</defs>
</svg>
