<svg xmlns="http://www.w3.org/2000/svg" viewBox="0 0 480 360" fill="none">
  <rect width="480" height="360" fill="#f5f5f5"/>
  <g transform="translate(60,40)">
    <rect x="0" y="60" width="70" height="200" rx="8" fill="#c4a882" opacity="0.9"/>
    <rect x="10" y="80" width="50" height="120" fill="#8b6914" opacity="0.4"/>
    <rect x="0" y="40" width="70" height="30" rx="4" fill="#d4d4d4"/>
    <rect x="25" y="20" width="20" height="25" fill="#a0a0a0"/>
  </g>
  <g transform="translate(180,20)">
    <rect x="0" y="70" width="80" height="230" rx="8" fill="#b8956a" opacity="0.95"/>
    <rect x="12" y="95" width="56" height="140" fill="#7a5c20" opacity="0.35"/>
    <rect x="0" y="45" width="80" height="35" rx="4" fill="#e8e8e8"/>
    <rect x="28" y="22" width="24" height="28" fill="#b0b0b0"/>
    <text x="8" y="175" font-size="8" fill="#fff" font-family="sans-serif" opacity="0.8">EnzyCore</text>
  </g>
  <g transform="translate(320,50)">
    <rect x="0" y="55" width="65" height="190" rx="8" fill="#c9a87a"/>
    <rect x="8" y="75" width="49" height="115" fill="#6d5218" opacity="0.35"/>
    <rect x="0" y="38" width="65" height="28" rx="4" fill="#d8d8d8"/>
    <rect x="22" y="18" width="21" height="24" fill="#9a9a9a"/>
  </g>
</svg>
