<svg width="232" height="32" viewBox="0 0 232 32" fill="none" xmlns="http://www.w3.org/2000/svg" aria-hidden="true">
<g clip-path="url(#clip0_primary)">
<path d="M143.68 16.5405C143.725 14.3116 144.21 12.0883 145.103 10.0574C145.993 8.02375 147.285 6.1798 148.872 4.65665C150.459 3.1335 152.339 1.93117 154.376 1.13612C156.41 0.338282 158.597 -0.0411097 160.756 0.00352457C162.918 0.0481589 165.066 0.519609 167.033 1.3844C169.002 2.24919 170.785 3.49895 172.258 5.03604C173.73 6.57313 174.894 8.39477 175.661 10.3643C176.431 12.3337 176.796 14.4483 176.752 16.5377C176.707 18.63 176.25 20.7083 175.41 22.608C174.573 24.5105 173.362 26.2345 171.875 27.6573C170.388 29.08 168.625 30.2042 166.723 30.9435C164.82 31.6855 162.778 32.037 160.756 31.9924C158.733 31.9477 156.728 31.5042 154.892 30.6924C153.056 29.8834 151.391 28.7117 150.018 27.2751C148.646 25.8384 147.561 24.1339 146.849 22.2984C146.135 20.46 145.795 18.4905 145.84 16.5377H143.68V16.5405ZM145.842 16.5405C145.887 18.4933 146.317 20.4265 147.101 22.1979C147.882 23.9694 149.014 25.5734 150.401 26.8985C151.79 28.2236 153.43 29.2669 155.204 29.9503C156.976 30.6366 158.876 30.963 160.759 30.9184C162.642 30.8737 164.505 30.4581 166.21 29.7021C167.914 28.9489 169.46 27.8553 170.734 26.5191C172.009 25.1801 173.011 23.5983 173.669 21.8911C174.33 20.1838 174.64 18.3594 174.595 16.5433C174.551 14.7301 174.149 12.9391 173.418 11.2988C172.69 9.65848 171.638 8.17439 170.349 6.94974C169.061 5.72508 167.537 4.76266 165.897 4.1322C164.257 3.49895 162.502 3.20325 160.759 3.24788C159.012 3.2953 157.294 3.68027 155.723 4.38326C154.15 5.08347 152.724 6.09611 151.55 7.33471C150.376 8.57331 149.452 10.0379 148.85 11.6112C148.244 13.1874 147.963 14.8695 148.004 16.5433H145.845L145.842 16.5405Z" fill="#314C54"/>
<path d="M24.2029 0.203125L14.8716 25.3434L5.58208 0.203125H0V30.7971H3.83576V5.61503L13.1671 30.7971H16.4477L25.8209 5.61503V30.7971H29.6149V0.203125H24.2029Z" fill="#314C54"/>
<path d="M53.6114 3.78224V0.203125H33.6292V30.7971H53.6114V27.2208H37.6741V16.7764H51.1844V13.2001H37.6741V3.78224H53.6114Z" fill="#314C54"/>
<path d="M70.5946 13.2698C66.4185 12.2767 63.6484 11.6156 63.6484 8.47442C63.6484 5.62061 66.2511 3.63718 69.8498 3.63718C73.6939 3.63718 76.0539 5.58156 77.5826 8.43257L80.601 6.03348C78.824 2.68312 75.1054 0.203125 69.9362 0.203125C64.3123 0.203125 59.807 3.59533 59.807 8.80081C59.807 14.3857 64.4378 15.6661 69.1105 16.7848C73.6158 17.856 77.047 18.4781 77.047 22.0767C77.047 25.4661 74.0677 27.3687 70.2236 27.3687C66.3794 27.3687 63.0291 25.3043 61.1684 21.7448L58.0691 24.2275C60.0916 28.2363 65.0153 30.7999 70.1399 30.7999C76.0121 30.7999 80.9302 27.2878 80.9302 21.7448C80.9302 15.4597 75.5155 14.4275 70.5946 13.2698Z" fill="#314C54"/>
<path d="M99.155 0.203125C91.383 0.203125 85.6782 6.44356 85.6782 15.4987C85.6782 24.5539 91.383 30.7971 99.155 30.7971C106.93 30.7971 112.593 24.5567 112.593 15.4987C112.593 6.44356 106.93 0.203125 99.155 0.203125ZM99.155 27.285C93.5729 27.285 89.6479 22.5259 89.6479 15.4987C89.6479 8.47163 93.5729 3.71808 99.155 3.71808C104.737 3.71808 108.665 8.47163 108.665 15.4987C108.665 22.5286 104.737 27.285 99.155 27.285Z" fill="#314C54"/>
<path d="M132.862 1.9391L141.318 1.9921V0.103516H132.862C128.452 0.103516 124.471 1.63224 121.651 4.40794C118.855 7.16131 117.315 11.0194 117.315 15.2708C117.315 24.3176 123.905 31.1383 132.645 31.1383H140.676V29.2525L132.645 29.3055C124.981 29.3055 119.201 23.2715 119.201 15.2736C119.201 7.42075 124.82 1.9391 132.862 1.9391Z" fill="#314C54"/>
<path d="M204.258 29.1908C200.916 28.7417 196.762 24.0244 193.61 17.1256H194.469C197.088 17.1256 199.476 16.2608 201.186 14.6903C202.888 13.1281 203.825 10.9717 203.825 8.61721C203.825 3.65443 199.847 0.0530032 194.366 0.0530032L180.66 0V31.0571H182.747V17.1786L191.411 17.1284C194.899 25.4304 199.786 30.8451 204.191 31.2719L204.52 31.3026V29.2271L204.261 29.1936L204.258 29.1908ZM182.747 1.92764L194.366 1.97786C198.712 1.97786 201.75 4.70892 201.75 8.61721C201.75 12.4028 198.712 15.1506 194.525 15.1506L182.75 15.2036V1.92764H182.747Z" fill="#314C54"/>
<path d="M209.346 1.83031V12.576H225.76V14.353H209.346V29.3585H231.939V31.1411H207.457V0.103516H231.939V1.83031H209.346Z" fill="#314C54"/>
</g>
<defs>
<clipPath id="clip0_primary">
<rect width="231.939" height="32" fill="white"/>
</clipPath>
</defs>
</svg>
